<svg xmlns="http://www.w3.org/2000/svg" width="39.738" height="73.5" viewBox="0 0 39.738 73.5"><defs><style>.a{fill:#fff;}</style></defs><g transform="translate(-69.154 -28)"><path class="a" d="M60.318.015,50.787,0C40.079,0,33.159,7.1,33.159,18.088v8.34H23.576a1.5,1.5,0,0,0-1.5,1.5V40.012a1.5,1.5,0,0,0,1.5,1.5h9.583V72a1.5,1.5,0,0,0,1.5,1.5h12.5a1.5,1.5,0,0,0,1.5-1.5V41.51H59.865a1.5,1.5,0,0,0,1.5-1.5l0-12.084a1.5,1.5,0,0,0-1.5-1.5H48.66v-7.07c0-3.4.81-5.123,5.236-5.123l6.421,0a1.5,1.5,0,0,0,1.5-1.5V1.514A1.5,1.5,0,0,0,60.318.015Z" transform="translate(47.077 28)"/></g></svg>