<svg xmlns="http://www.w3.org/2000/svg" width="47.029" height="56.434" viewBox="0 0 47.029 56.434"><defs><style>.a{fill:#fff;}</style></defs><path class="a" d="M47.279,41.28h-3.1l.014-1.8a1.46,1.46,0,0,1,1.459-1.453h.2a1.462,1.462,0,0,1,1.462,1.453ZM35.663,37.425A1.324,1.324,0,0,0,34.234,38.6v8.749a1.459,1.459,0,0,0,2.861,0V38.6A1.325,1.325,0,0,0,35.663,37.425Zm18.866-4.894V49.175a7.508,7.508,0,0,1-7.694,7.259H15.194A7.508,7.508,0,0,1,7.5,49.175V32.531a7.508,7.508,0,0,1,7.694-7.26h31.64A7.509,7.509,0,0,1,54.529,32.531ZM17.305,50.982l0-17.533h3.922v-2.6l-10.455-.016v2.554l3.264.009V50.982ZM29.062,36.061h-3.27v9.362a16.593,16.593,0,0,1-.005,2.271c-.266.726-1.461,1.5-1.927.078a18.632,18.632,0,0,1-.011-2.284l-.013-9.427H20.585l.01,9.279c0,1.422-.032,2.482.011,2.965.08.851.051,1.843.841,2.41,1.471,1.06,4.291-.158,5-1.673l-.006,1.933,2.626,0V36.061ZM39.523,46.782l-.007-7.792c0-2.97-2.224-4.748-5.24-2.345l.013-5.793-3.266.005-.016,20,2.686-.039.245-1.245C37.371,52.717,39.528,50.559,39.523,46.782Zm10.234-1.033-2.452.013c0,.1-.005.209-.006.332v1.368a1.339,1.339,0,0,1-1.34,1.329h-.48a1.339,1.339,0,0,1-1.341-1.329v-3.6h5.615V41.751a33.34,33.34,0,0,0-.167-3.971c-.4-2.793-4.322-3.236-6.3-1.807A3.692,3.692,0,0,0,41.91,37.82a10.4,10.4,0,0,0-.417,3.295v4.646C41.495,53.485,50.877,52.393,49.757,45.749ZM37.18,20.525a2.226,2.226,0,0,0,.786.993,2.278,2.278,0,0,0,1.338.371,2.081,2.081,0,0,0,1.253-.39,3,3,0,0,0,.917-1.173l-.062,1.283h3.645V6.107H42.188V18.172a1.195,1.195,0,0,1-2.39,0V6.107H36.8V16.563c0,1.332.024,2.22.064,2.67A4.5,4.5,0,0,0,37.18,20.525ZM26.134,11.77A12.9,12.9,0,0,1,26.5,8.282a3.732,3.732,0,0,1,3.811-2.775A4.521,4.521,0,0,1,32.485,6a3.614,3.614,0,0,1,1.4,1.272,5.017,5.017,0,0,1,.675,1.614,12.873,12.873,0,0,1,.182,2.538v3.92a21.224,21.224,0,0,1-.17,3.167,5.02,5.02,0,0,1-.719,1.884,3.407,3.407,0,0,1-1.4,1.289,4.476,4.476,0,0,1-1.978.416,5.493,5.493,0,0,1-2.108-.354,2.893,2.893,0,0,1-1.344-1.075,4.771,4.771,0,0,1-.685-1.738,16.75,16.75,0,0,1-.2-3.056l0-4.1Zm2.855,6.158a1.455,1.455,0,1,0,2.9,0V9.675a1.455,1.455,0,1,0-2.9,0ZM18.9,22.094H22.34l0-11.889L26.407.021H22.646l-2.16,7.565L18.295,0H14.572L18.9,10.211Z" transform="translate(-7.5)"/></svg>