<svg xmlns="http://www.w3.org/2000/svg" width="33.025" height="31.557" viewBox="0 0 33.025 31.557"><defs><style>.a{fill:#fff;}</style></defs><path class="a" d="M33.025,28.906v12.21H25.947V29.724c0-2.862-1.024-4.815-3.586-4.815A3.873,3.873,0,0,0,18.729,27.5a4.844,4.844,0,0,0-.235,1.726V41.116H11.413s.1-19.294,0-21.293h7.08v3.018c-.014.023-.033.047-.047.069h.047v-.069a7.03,7.03,0,0,1,6.381-3.518C29.533,19.322,33.025,22.365,33.025,28.906ZM4.007,9.558a3.69,3.69,0,1,0-.094,7.359H3.96a3.691,3.691,0,1,0,.047-7.359ZM.421,41.116H7.5V19.822H.421Z" transform="translate(0 -9.558)"/></svg>