<svg xmlns="http://www.w3.org/2000/svg" width="44.584" height="44.584" viewBox="0 0 44.584 44.584"><defs><style>.a{fill:#fff;}</style></defs><g transform="translate(16 19)"><g transform="translate(-16 -19)"><path class="a" d="M31.3,0H13.282A13.3,13.3,0,0,0,0,13.282V31.3A13.3,13.3,0,0,0,13.282,44.584H31.3A13.3,13.3,0,0,0,44.584,31.3V13.282A13.3,13.3,0,0,0,31.3,0Zm8.8,31.3a8.8,8.8,0,0,1-8.8,8.8H13.282a8.8,8.8,0,0,1-8.8-8.8V13.282a8.8,8.8,0,0,1,8.8-8.8H31.3a8.8,8.8,0,0,1,8.8,8.8V31.3Z"/><path class="a" d="M144.531,133a11.531,11.531,0,1,0,11.531,11.531A11.544,11.544,0,0,0,144.531,133Zm0,18.577a7.046,7.046,0,1,1,7.046-7.046A7.046,7.046,0,0,1,144.531,151.577Z" transform="translate(-122.239 -122.239)"/><circle class="a" cx="2.763" cy="2.763" r="2.763" transform="translate(31.082 8.084)"/></g></g></svg>