<svg xmlns="http://www.w3.org/2000/svg" width="29.673" height="25.717" viewBox="0 0 29.673 25.717"><defs><style>.a{fill:#fff;}</style></defs><g transform="translate(0 -36.543)"><path class="a" d="M28.947,37.27a2.381,2.381,0,0,0-1.746-.727H2.473a2.382,2.382,0,0,0-1.746.727A2.381,2.381,0,0,0,0,39.016V55.831a2.381,2.381,0,0,0,.726,1.747,2.382,2.382,0,0,0,1.746.726H10.88a3.233,3.233,0,0,1-.247,1.205,10.934,10.934,0,0,1-.495,1.082,1.709,1.709,0,0,0-.247.68,1,1,0,0,0,.989.99h7.913a1,1,0,0,0,.989-.99,1.768,1.768,0,0,0-.247-.672,11.338,11.338,0,0,1-.494-1.1,3.258,3.258,0,0,1-.247-1.2H27.2a2.48,2.48,0,0,0,2.472-2.473V39.016A2.38,2.38,0,0,0,28.947,37.27Zm-1.252,14.6a.5.5,0,0,1-.495.494H2.473a.5.5,0,0,1-.494-.494V39.016a.5.5,0,0,1,.494-.494H27.2a.5.5,0,0,1,.494.494V51.874Z" transform="translate(0)"/></g></svg>